<svg id="visual" viewBox="0 0 900 450" width="900" height="450" xmlns="http://www.w3.org/2000/svg" xmlns:xlink="http://www.w3.org/1999/xlink" version="1.1"><rect x="0" y="0" width="900" height="450" fill="#140152"></rect><path d="M0 214L12.5 219.3C25 224.7 50 235.3 75 233.2C100 231 125 216 150 212.5C175 209 200 217 225 217.7C250 218.3 275 211.7 300 214C325 216.3 350 227.7 375 236.2C400 244.7 425 250.3 450 250.5C475 250.7 500 245.3 525 245.3C550 245.3 575 250.7 600 253C625 255.3 650 254.7 675 250.5C700 246.3 725 238.7 750 238.3C775 238 800 245 825 243C850 241 875 230 887.5 224.5L900 219L900 451L887.5 451C875 451 850 451 825 451C800 451 775 451 750 451C725 451 700 451 675 451C650 451 625 451 600 451C575 451 550 451 525 451C500 451 475 451 450 451C425 451 400 451 375 451C350 451 325 451 300 451C275 451 250 451 225 451C200 451 175 451 150 451C125 451 100 451 75 451C50 451 25 451 12.5 451L0 451Z" fill="#fa7268"></path><path d="M0 255L12.5 259.2C25 263.3 50 271.7 75 276.3C100 281 125 282 150 278C175 274 200 265 225 263.3C250 261.7 275 267.3 300 265.3C325 263.3 350 253.7 375 249.7C400 245.7 425 247.3 450 253.8C475 260.3 500 271.7 525 273C550 274.3 575 265.7 600 260.7C625 255.7 650 254.3 675 257.5C700 260.7 725 268.3 750 267.8C775 267.3 800 258.7 825 256.5C850 254.3 875 258.7 887.5 260.8L900 263L900 451L887.5 451C875 451 850 451 825 451C800 451 775 451 750 451C725 451 700 451 675 451C650 451 625 451 600 451C575 451 550 451 525 451C500 451 475 451 450 451C425 451 400 451 375 451C350 451 325 451 300 451C275 451 250 451 225 451C200 451 175 451 150 451C125 451 100 451 75 451C50 451 25 451 12.5 451L0 451Z" fill="#e34a6a"></path><path d="M0 326L12.5 320.3C25 314.7 50 303.3 75 299.5C100 295.7 125 299.3 150 298.3C175 297.3 200 291.7 225 294.5C250 297.3 275 308.7 300 314.7C325 320.7 350 321.3 375 318.7C400 316 425 310 450 309.2C475 308.3 500 312.7 525 309.2C550 305.7 575 294.3 600 295C625 295.7 650 308.3 675 313C700 317.7 725 314.3 750 306.5C775 298.7 800 286.3 825 281.8C850 277.3 875 280.7 887.5 282.3L900 284L900 451L887.5 451C875 451 850 451 825 451C800 451 775 451 750 451C725 451 700 451 675 451C650 451 625 451 600 451C575 451 550 451 525 451C500 451 475 451 450 451C425 451 400 451 375 451C350 451 325 451 300 451C275 451 250 451 225 451C200 451 175 451 150 451C125 451 100 451 75 451C50 451 25 451 12.5 451L0 451Z" fill="#c5206f"></path><path d="M0 354L12.5 348C25 342 50 330 75 330.3C100 330.7 125 343.3 150 349.8C175 356.3 200 356.7 225 356.7C250 356.7 275 356.3 300 349C325 341.7 350 327.3 375 321.7C400 316 425 319 450 322.7C475 326.3 500 330.7 525 333.5C550 336.3 575 337.7 600 338.7C625 339.7 650 340.3 675 341.2C700 342 725 343 750 341.3C775 339.7 800 335.3 825 337.7C850 340 875 349 887.5 353.5L900 358L900 451L887.5 451C875 451 850 451 825 451C800 451 775 451 750 451C725 451 700 451 675 451C650 451 625 451 600 451C575 451 550 451 525 451C500 451 475 451 450 451C425 451 400 451 375 451C350 451 325 451 300 451C275 451 250 451 225 451C200 451 175 451 150 451C125 451 100 451 75 451C50 451 25 451 12.5 451L0 451Z" fill="#9f0075"></path><path d="M0 352L12.5 352.7C25 353.3 50 354.7 75 358.5C100 362.3 125 368.7 150 374.7C175 380.7 200 386.3 225 382.3C250 378.3 275 364.7 300 360.8C325 357 350 363 375 364.7C400 366.3 425 363.7 450 364.2C475 364.7 500 368.3 525 373.5C550 378.7 575 385.3 600 387.5C625 389.7 650 387.3 675 383.8C700 380.3 725 375.7 750 369.8C775 364 800 357 825 360.7C850 364.3 875 378.7 887.5 385.8L900 393L900 451L887.5 451C875 451 850 451 825 451C800 451 775 451 750 451C725 451 700 451 675 451C650 451 625 451 600 451C575 451 550 451 525 451C500 451 475 451 450 451C425 451 400 451 375 451C350 451 325 451 300 451C275 451 250 451 225 451C200 451 175 451 150 451C125 451 100 451 75 451C50 451 25 451 12.5 451L0 451Z" fill="#6e007a"></path><path d="M0 396L12.5 402.3C25 408.7 50 421.3 75 421.7C100 422 125 410 150 406C175 402 200 406 225 409.5C250 413 275 416 300 414.8C325 413.7 350 408.3 375 410.5C400 412.7 425 422.3 450 427.3C475 432.3 500 432.7 525 425.3C550 418 575 403 600 395.8C625 388.7 650 389.3 675 393.7C700 398 725 406 750 408.3C775 410.7 800 407.3 825 403.5C850 399.7 875 395.3 887.5 393.2L900 391L900 451L887.5 451C875 451 850 451 825 451C800 451 775 451 750 451C725 451 700 451 675 451C650 451 625 451 600 451C575 451 550 451 525 451C500 451 475 451 450 451C425 451 400 451 375 451C350 451 325 451 300 451C275 451 250 451 225 451C200 451 175 451 150 451C125 451 100 451 75 451C50 451 25 451 12.5 451L0 451Z" fill="#22007c"></path></svg>