<svg id="visual" viewBox="0 0 900 450" width="900" height="450" xmlns="http://www.w3.org/2000/svg" xmlns:xlink="http://www.w3.org/1999/xlink" version="1.1"><rect x="0" y="0" width="900" height="450" fill="#140152"></rect><path d="M0 80L25 100.8C50 121.7 100 163.3 150 179.2C200 195 250 185 300 171.7C350 158.3 400 141.7 450 140.5C500 139.3 550 153.7 600 159.7C650 165.7 700 163.3 750 153.2C800 143 850 125 875 116L900 107L900 0L875 0C850 0 800 0 750 0C700 0 650 0 600 0C550 0 500 0 450 0C400 0 350 0 300 0C250 0 200 0 150 0C100 0 50 0 25 0L0 0Z" fill="#22007c" stroke-linecap="round" stroke-linejoin="miter"></path></svg>