<svg id="visual" viewBox="0 0 900 450" width="900" height="450" xmlns="http://www.w3.org/2000/svg" xmlns:xlink="http://www.w3.org/1999/xlink" version="1.1"><path d="M0 82L13.7 97.8C27.3 113.7 54.7 145.3 82 152.8C109.3 160.3 136.7 143.7 163.8 129.3C191 115 218 103 245.2 92.5C272.3 82 299.7 73 327 79C354.3 85 381.7 106 409 121.8C436.3 137.7 463.7 148.3 491 142.3C518.3 136.3 545.7 113.7 573 106.2C600.3 98.7 627.7 106.3 654.8 116.2C682 126 709 138 736.2 145.5C763.3 153 790.7 156 818 148.5C845.3 141 872.7 123 886.3 114L900 105L900 0L886.3 0C872.7 0 845.3 0 818 0C790.7 0 763.3 0 736.2 0C709 0 682 0 654.8 0C627.7 0 600.3 0 573 0C545.7 0 518.3 0 491 0C463.7 0 436.3 0 409 0C381.7 0 354.3 0 327 0C299.7 0 272.3 0 245.2 0C218 0 191 0 163.8 0C136.7 0 109.3 0 82 0C54.7 0 27.3 0 13.7 0L0 0Z" fill="#406aff"></path><path d="M0 154L13.7 163C27.3 172 54.7 190 82 192.3C109.3 194.7 136.7 181.3 163.8 173.8C191 166.3 218 164.7 245.2 157.2C272.3 149.7 299.7 136.3 327 144.7C354.3 153 381.7 183 409 200.2C436.3 217.3 463.7 221.7 491 217.2C518.3 212.7 545.7 199.3 573 188.8C600.3 178.3 627.7 170.7 654.8 179.7C682 188.7 709 214.3 736.2 221.2C763.3 228 790.7 216 818 201C845.3 186 872.7 168 886.3 159L900 150L900 103L886.3 112C872.7 121 845.3 139 818 146.5C790.7 154 763.3 151 736.2 143.5C709 136 682 124 654.8 114.2C627.7 104.3 600.3 96.7 573 104.2C545.7 111.7 518.3 134.3 491 140.3C463.7 146.3 436.3 135.7 409 119.8C381.7 104 354.3 83 327 77C299.7 71 272.3 80 245.2 90.5C218 101 191 113 163.8 127.3C136.7 141.7 109.3 158.3 82 150.8C54.7 143.3 27.3 111.7 13.7 95.8L0 80Z" fill="#9452dc"></path><path d="M0 249L13.7 261.7C27.3 274.3 54.7 299.7 82 305.7C109.3 311.7 136.7 298.3 163.8 284.8C191 271.3 218 257.7 245.2 247.2C272.3 236.7 299.7 229.3 327 233.2C354.3 237 381.7 252 409 266.2C436.3 280.3 463.7 293.7 491 298.8C518.3 304 545.7 301 573 294.3C600.3 287.7 627.7 277.3 654.8 279.7C682 282 709 297 736.2 304.5C763.3 312 790.7 312 818 300C845.3 288 872.7 264 886.3 252L900 240L900 148L886.3 157C872.7 166 845.3 184 818 199C790.7 214 763.3 226 736.2 219.2C709 212.3 682 186.7 654.8 177.7C627.7 168.7 600.3 176.3 573 186.8C545.7 197.3 518.3 210.7 491 215.2C463.7 219.7 436.3 215.3 409 198.2C381.7 181 354.3 151 327 142.7C299.7 134.3 272.3 147.7 245.2 155.2C218 162.7 191 164.3 163.8 171.8C136.7 179.3 109.3 192.7 82 190.3C54.7 188 27.3 170 13.7 161L0 152Z" fill="#b739b4"></path><path d="M0 406L13.7 406C27.3 406 54.7 406 82 406.8C109.3 407.7 136.7 409.3 163.8 412.3C191 415.3 218 419.7 245.2 420.3C272.3 421 299.7 418 327 415.8C354.3 413.7 381.7 412.3 409 406.3C436.3 400.3 463.7 389.7 491 391.2C518.3 392.7 545.7 406.3 573 408.7C600.3 411 627.7 402 654.8 396C682 390 709 387 736.2 384.7C763.3 382.3 790.7 380.7 818 382.8C845.3 385 872.7 391 886.3 394L900 397L900 238L886.3 250C872.7 262 845.3 286 818 298C790.7 310 763.3 310 736.2 302.5C709 295 682 280 654.8 277.7C627.7 275.3 600.3 285.7 573 292.3C545.7 299 518.3 302 491 296.8C463.7 291.7 436.3 278.3 409 264.2C381.7 250 354.3 235 327 231.2C299.7 227.3 272.3 234.7 245.2 245.2C218 255.7 191 269.3 163.8 282.8C136.7 296.3 109.3 309.7 82 303.7C54.7 297.7 27.3 272.3 13.7 259.7L0 247Z" fill="#c6268c"></path><path d="M0 451L13.7 451C27.3 451 54.7 451 82 451C109.3 451 136.7 451 163.8 451C191 451 218 451 245.2 451C272.3 451 299.7 451 327 451C354.3 451 381.7 451 409 451C436.3 451 463.7 451 491 451C518.3 451 545.7 451 573 451C600.3 451 627.7 451 654.8 451C682 451 709 451 736.2 451C763.3 451 790.7 451 818 451C845.3 451 872.7 451 886.3 451L900 451L900 395L886.3 392C872.7 389 845.3 383 818 380.8C790.7 378.7 763.3 380.3 736.2 382.7C709 385 682 388 654.8 394C627.7 400 600.3 409 573 406.7C545.7 404.3 518.3 390.7 491 389.2C463.7 387.7 436.3 398.3 409 404.3C381.7 410.3 354.3 411.7 327 413.8C299.7 416 272.3 419 245.2 418.3C218 417.7 191 413.3 163.8 410.3C136.7 407.3 109.3 405.7 82 404.8C54.7 404 27.3 404 13.7 404L0 404Z" fill="#c62368"></path></svg>