<svg id="visual" viewBox="0 0 900 450" width="900" height="450" xmlns="http://www.w3.org/2000/svg" xmlns:xlink="http://www.w3.org/1999/xlink" version="1.1"><rect x="0" y="0" width="900" height="450" fill="#140152"></rect><path d="M0 195L129 195L129 249L257 249L257 270L386 270L386 272L514 272L514 283L643 283L643 225L771 225L771 274L900 274L900 194L900 451L900 451L771 451L771 451L643 451L643 451L514 451L514 451L386 451L386 451L257 451L257 451L129 451L129 451L0 451Z" fill="#3bace2"></path><path d="M0 289L129 289L129 301L257 301L257 273L386 273L386 296L514 296L514 326L643 326L643 262L771 262L771 274L900 274L900 259L900 451L900 451L771 451L771 451L643 451L643 451L514 451L514 451L386 451L386 451L257 451L257 451L129 451L129 451L0 451Z" fill="#0092fa"></path><path d="M0 359L129 359L129 383L257 383L257 358L386 358L386 345L514 345L514 377L643 377L643 332L771 332L771 369L900 369L900 344L900 451L900 451L771 451L771 451L643 451L643 451L514 451L514 451L386 451L386 451L257 451L257 451L129 451L129 451L0 451Z" fill="#406aff"></path></svg>